<svg xmlns="http://www.w3.org/2000/svg" viewBox="0 0 1600 1000"><defs><linearGradient id="bg" x1="0" y1="0" x2="1" y2="1"><stop stop-color="#0d0706"/><stop offset=".52" stop-color="#5a0b17"/><stop offset="1" stop-color="#b12b45"/></linearGradient><radialGradient id="glow"><stop stop-color="#e0bd78" stop-opacity=".9"/><stop offset="1" stop-color="#e0bd78" stop-opacity="0"/></radialGradient><filter id="blur"><feGaussianBlur stdDeviation="35"/></filter><pattern id="petals" width="90" height="70" patternUnits="userSpaceOnUse"><circle cx="20" cy="35" r="18" fill="#b12b45" opacity=".9"/><circle cx="48" cy="18" r="16" fill="#b12b45" opacity=".75"/><circle cx="65" cy="45" r="15" fill="#e0bd78" opacity=".32"/></pattern></defs><rect width="1600" height="1000" fill="url(#bg)"/><ellipse cx="800" cy="420" rx="520" ry="430" fill="url(#glow)" filter="url(#blur)"/><path d="M0 160 Q800 20 1600 160 L1600 0 0 0Z" fill="#e0bd78" opacity=".12"/><rect x="90" y="70" width="1420" height="860" rx="30" fill="none" stroke="#e0bd78" stroke-opacity=".35" stroke-width="3"/><path d="M180 850 Q800 180 1420 850" fill="none" stroke="#e0bd78" stroke-width="18" opacity=".75"/><path d="M240 850 Q800 280 1360 850" fill="none" stroke="#e0bd78" stroke-width="8" opacity=".35"/><rect x="120" y="90" width="1360" height="260" fill="url(#petals)" opacity=".9"/><g fill="#e0bd78"><circle cx="250" cy="740" r="34"/><circle cx="370" cy="650" r="25"/><circle cx="1230" cy="650" r="25"/><circle cx="1350" cy="740" r="34"/></g><g stroke="#e0bd78" stroke-width="5" fill="none" opacity=".7"><path d="M300 120v180M520 100v200M800 80v220M1080 100v200M1300 120v180"/></g><g fill="#e0bd78" opacity=".8"><circle cx="300" cy="310" r="10"/><circle cx="520" cy="300" r="8"/><circle cx="800" cy="290" r="12"/><circle cx="1080" cy="300" r="8"/><circle cx="1300" cy="310" r="10"/></g><text x="800" y="530" text-anchor="middle" fill="#f4e9d2" font-family="Georgia,serif" font-size="72" letter-spacing="12">THE DETAILS</text><text x="800" y="600" text-anchor="middle" fill="#e0bd78" font-family="Arial,sans-serif" font-size="20" letter-spacing="8">CRIMSON PETALS · ANTIQUE GOLD</text><rect x="500" y="655" width="600" height="2" fill="#e0bd78" opacity=".6"/></svg>